<svg
  aria-hidden="true"
  style="position: absolute; width: 0; height: 0; overflow: hidden;"
  version="1.1"
  xmlns="http://www.w3.org/2000/svg"
  xmlns:xlink="http://www.w3.org/1999/xlink"
>
  <defs>
    <symbol id="svg__facebook" viewBox="0 0 96.124 96.123">
      <path
        d="M72.089,0.02L59.624,0C45.62,0,36.57,9.285,36.57,23.656v10.907H24.037c-1.083,0-1.96,0.878-1.96,1.961v15.803
          c0,1.083,0.878,1.96,1.96,1.96h12.533v39.876c0,1.083,0.877,1.96,1.96,1.96h16.352c1.083,0,1.96-0.878,1.96-1.96V54.287h14.654
          c1.083,0,1.96-0.877,1.96-1.96l0.006-15.803c0-0.52-0.207-1.018-0.574-1.386c-0.367-0.368-0.867-0.575-1.387-0.575H56.842v-9.246
          c0-4.444,1.059-6.7,6.848-6.7l8.397-0.003c1.082,0,1.959-0.878,1.959-1.96V1.98C74.046,0.899,73.17,0.022,72.089,0.02z"
      />
    </symbol>

    <symbol id="svg__twitter" viewBox="0 0 430.117 430.117">
      <path
        d="M381.384,198.639c24.157-1.993,40.543-12.975,46.849-27.876
              c-8.714,5.353-35.764,11.189-50.703,5.631c-0.732-3.51-1.55-6.844-2.353-9.854c-11.383-41.798-50.357-75.472-91.194-71.404
              c3.304-1.334,6.655-2.576,9.996-3.691c4.495-1.61,30.868-5.901,26.715-15.21c-3.5-8.188-35.722,6.188-41.789,8.067
              c8.009-3.012,21.254-8.193,22.673-17.396c-12.27,1.683-24.315,7.484-33.622,15.919c3.36-3.617,5.909-8.025,6.45-12.769
              C241.68,90.963,222.563,133.113,207.092,174c-12.148-11.773-22.915-21.044-32.574-26.192
              c-27.097-14.531-59.496-29.692-110.355-48.572c-1.561,16.827,8.322,39.201,36.8,54.08c-6.17-0.826-17.453,1.017-26.477,3.178
              c3.675,19.277,15.677,35.159,48.169,42.839c-14.849,0.98-22.523,4.359-29.478,11.642c6.763,13.407,23.266,29.186,52.953,25.947
              c-33.006,14.226-13.458,40.571,13.399,36.642C113.713,320.887,41.479,317.409,0,277.828
              c108.299,147.572,343.716,87.274,378.799-54.866c26.285,0.224,41.737-9.105,51.318-19.39
              C414.973,206.142,393.023,203.486,381.384,198.639z"
      />
    </symbol>

    <symbol id="svg__linkedin" viewBox="0 0 430.117 430.118">
      <path
        d="M398.355,0H31.782C14.229,0,0.002,13.793,0.002,30.817v368.471
              c0,17.025,14.232,30.83,31.78,30.83h366.573c17.549,0,31.76-13.814,31.76-30.83V30.817C430.115,13.798,415.904,0,398.355,0z
               M130.4,360.038H65.413V165.845H130.4V360.038z M97.913,139.315h-0.437c-21.793,0-35.92-14.904-35.92-33.563
              c0-19.035,14.542-33.535,36.767-33.535c22.227,0,35.899,14.496,36.331,33.535C134.654,124.415,120.555,139.315,97.913,139.315z
               M364.659,360.038h-64.966V256.138c0-26.107-9.413-43.921-32.907-43.921c-17.973,0-28.642,12.018-33.327,23.621
              c-1.736,4.144-2.166,9.94-2.166,15.728v108.468h-64.954c0,0,0.85-175.979,0-194.192h64.964v27.531
              c8.624-13.229,24.035-32.1,58.534-32.1c42.76,0,74.822,27.739,74.822,87.414V360.038z M230.883,193.99
              c0.111-0.182,0.266-0.401,0.42-0.614v0.614H230.883z"
      />
    </symbol>

    <symbol id="svg__heart" viewBox="0 0 50 50">
      <path
        d="M24.85,10.126c2.018-4.783,6.628-8.125,11.99-8.125c7.223,0,12.425,6.179,13.079,13.543  c0,0,0.353,1.828-0.424,5.119c-1.058,4.482-3.545,8.464-6.898,11.503L24.85,48L7.402,32.165c-3.353-3.038-5.84-7.021-6.898-11.503  c-0.777-3.291-0.424-5.119-0.424-5.119C0.734,8.179,5.936,2,13.159,2C18.522,2,22.832,5.343,24.85,10.126z"
      />
    </symbol>

    <symbol id="svg__letter" viewBox="0 0 550.795 550.795">
      <g>
        <path
          d="M501.613,491.782c12.381,0,23.109-4.088,32.229-12.16L377.793,323.567c-3.744,2.681-7.373,5.288-10.801,7.767    c-11.678,8.604-21.156,15.318-28.434,20.129c-7.277,4.822-16.959,9.737-29.045,14.755c-12.094,5.024-23.361,7.528-33.813,7.528    h-0.306h-0.306c-10.453,0-21.72-2.503-33.813-7.528c-12.093-5.018-21.775-9.933-29.045-14.755    c-7.277-4.811-16.75-11.524-28.434-20.129c-3.256-2.387-6.867-5.006-10.771-7.809L16.946,479.622    c9.119,8.072,19.854,12.16,32.234,12.16H501.613z"
        />
        <path
          d="M31.047,225.299C19.37,217.514,9.015,208.598,0,198.555V435.98l137.541-137.541    C110.025,279.229,74.572,254.877,31.047,225.299z"
        />
        <path
          d="M520.059,225.299c-41.865,28.336-77.447,52.73-106.75,73.195l137.486,137.492V198.555    C541.98,208.396,531.736,217.306,520.059,225.299z"
        />
        <path
          d="M501.613,59.013H49.181c-15.784,0-27.919,5.33-36.42,15.979C4.253,85.646,0.006,98.97,0.006,114.949    c0,12.907,5.636,26.892,16.903,41.959c11.267,15.061,23.256,26.891,35.961,35.496c6.965,4.921,27.969,19.523,63.012,43.801    c18.917,13.109,35.368,24.535,49.505,34.395c12.05,8.396,22.442,15.667,31.022,21.701c0.985,0.691,2.534,1.799,4.59,3.269    c2.215,1.591,5.018,3.61,8.476,6.107c6.659,4.816,12.191,8.709,16.597,11.683c4.4,2.975,9.731,6.298,15.985,9.988    c6.249,3.685,12.143,6.456,17.675,8.299c5.533,1.842,10.655,2.766,15.367,2.766h0.306h0.306c4.711,0,9.834-0.924,15.368-2.766    c5.531-1.843,11.42-4.608,17.674-8.299c6.248-3.69,11.572-7.02,15.986-9.988c4.406-2.974,9.938-6.866,16.598-11.683    c3.451-2.497,6.254-4.517,8.469-6.102c2.057-1.476,3.605-2.577,4.596-3.274c6.684-4.651,17.1-11.892,31.104-21.616    c25.482-17.705,63.01-43.764,112.742-78.281c14.957-10.447,27.453-23.054,37.496-37.803c10.025-14.749,15.051-30.22,15.051-46.408    c0-13.525-4.873-25.098-14.598-34.737C526.461,63.829,514.932,59.013,501.613,59.013z"
        />
      </g>
    </symbol>

    <symbol id="svg__headsets_with_microphone" viewBox="0 0 575.969 575.969">
      <path
        d="M563.472,363.566c-7.456-11.369-17.657-20.234-29.382-26.146c4.009-53.108-12.074-97.496-36.568-99.644l-0.896-0.078    c-1.153-44.898-15.597-89.487-42.517-127.657C410.748,48.562,340.953,11.86,267.407,11.86    c-73.548,0-143.343,36.702-186.707,98.183c-26.937,38.201-41.379,82.816-42.524,127.745l-0.887,0.075    C12.384,240.05-3.938,285.838,0.826,340.122c4.774,54.304,28.837,96.541,53.729,94.356h0.01l81.259-7.132    c6.854-0.604,13.183-3.903,17.601-9.172c4.429-5.28,6.567-12.086,5.965-18.939l-12.724-144.934    c-1.259-14.27-13.839-24.829-28.111-23.568l-21.495,1.891c1.938-31.081,12.427-61.645,31.567-88.783    c32.875-46.61,83.454-73.336,138.779-73.336c55.322,0,105.904,26.728,138.779,73.336c19.128,27.11,29.599,57.645,31.556,88.687    l-21.485-1.881c-14.271-1.261-26.851,9.296-28.111,23.568L375.421,399.15c-0.6,6.853,1.538,13.66,5.967,18.938    c4.419,5.271,10.749,8.572,17.603,9.173l81.259,7.132h0.009c18.312,1.604,36.103-20.925,46.173-54.503    c1.536,1.61,3.094,3.205,4.341,5.116c6.875,10.47,8,23.595,3.009,35.088l-25.804,59.359c-7.837,18.031-25.6,29.676-45.261,29.676    h-34.728c-2.835-9.125-11.026-15.884-21.085-15.884h-64.354c-12.37,0-22.399,10.031-22.399,22.401v26.06    c0,12.37,10.029,22.402,22.399,22.402h64.354c10.059,0,18.25-6.758,21.085-15.883h34.728c35.238,0,67.083-20.886,81.114-53.197    l25.81-59.362C579.89,412.047,577.589,385.09,563.472,363.566z"
      />
    </symbol>

    <symbol id="svg__location_pin" viewBox="0 0 413.099 413.099">
      <path
        d="M206.549,0L206.549,0c-82.6,0-149.3,66.7-149.3,149.3c0,28.8,9.2,56.3,22,78.899l97.3,168.399c6.1,11,18.4,16.5,30,16.5    c11.601,0,23.3-5.5,30-16.5l97.3-168.299c12.9-22.601,22-49.601,22-78.901C355.849,66.8,289.149,0,206.549,0z M206.549,193.4    c-30,0-54.5-24.5-54.5-54.5s24.5-54.5,54.5-54.5s54.5,24.5,54.5,54.5C261.049,169,236.549,193.4,206.549,193.4z"
      />
    </symbol>

    <symbol id="svg__magnifying_search_lenses_tool" viewBox="0 0 28.931 28.932">
      <path
        d="M28.344,25.518l-6.114-6.115c1.486-2.067,2.303-4.537,2.303-7.137c0-3.275-1.275-6.355-3.594-8.672   C18.625,1.278,15.543,0,12.266,0C8.99,0,5.909,1.275,3.593,3.594C1.277,5.909,0.001,8.99,0.001,12.266   c0,3.276,1.275,6.356,3.592,8.674c2.316,2.316,5.396,3.594,8.673,3.594c2.599,0,5.067-0.813,7.136-2.303l6.114,6.115   c0.392,0.391,0.902,0.586,1.414,0.586c0.513,0,1.024-0.195,1.414-0.586C29.125,27.564,29.125,26.299,28.344,25.518z M6.422,18.111   c-1.562-1.562-2.421-3.639-2.421-5.846S4.86,7.983,6.422,6.421c1.561-1.562,3.636-2.422,5.844-2.422s4.284,0.86,5.845,2.422   c1.562,1.562,2.422,3.638,2.422,5.845s-0.859,4.283-2.422,5.846c-1.562,1.562-3.636,2.42-5.845,2.42S7.981,19.672,6.422,18.111z"
      />
    </symbol>

    <symbol id="svg__skype_logo" viewBox="0 0 438.536 438.536">
      <path
        d="M415.7,262.093c3.039-14.657,4.564-28.935,4.564-42.826c0-27.218-5.276-53.247-15.844-78.087   c-10.562-24.838-24.838-46.249-42.825-64.237C343.608,58.955,322.2,44.68,297.361,34.114   c-24.845-10.559-50.866-15.843-78.088-15.843c-13.894,0-28.171,1.524-42.827,4.57C156.651,7.614,134.381,0,109.637,0   C79.375,0,53.538,10.705,32.124,32.115c-21.416,21.416-32.12,47.253-32.12,77.516c0,24.744,7.614,47.014,22.839,66.809   c-3.044,14.655-4.568,28.933-4.568,42.827c0,27.215,5.28,53.243,15.843,78.085c10.562,24.838,24.838,46.25,42.827,64.241   c17.987,17.986,39.401,32.257,64.239,42.824c24.84,10.564,50.869,15.845,78.087,15.845c13.893,0,28.17-1.526,42.834-4.572   c19.79,15.229,42.058,22.847,66.804,22.847c30.259,0,56.103-10.711,77.505-32.12c21.416-21.416,32.12-47.253,32.12-77.519   C438.529,304.158,430.918,281.891,415.7,262.093z M325.472,304.49c-6.276,11.136-14.702,20.033-25.263,26.696   c-10.567,6.663-22.224,11.748-34.975,15.273c-12.751,3.518-26.073,5.283-39.971,5.283c-32.163,0-59.855-6.235-83.078-18.705   c-23.223-12.471-34.833-27.453-34.833-44.968c0-8.562,2.428-15.693,7.282-21.408c4.853-5.712,12.038-8.562,21.555-8.562   c5.52,0,10.657,1.522,15.415,4.564c4.758,3.046,9.135,6.715,13.134,10.999c3.999,4.285,8.326,8.562,12.99,12.847   c4.661,4.285,10.847,7.946,18.555,10.992c7.71,3.046,16.418,4.572,26.128,4.572c12.371,0,22.36-2.423,29.981-7.275   c7.61-4.859,11.416-10.999,11.416-18.418c0-7.618-3.042-13.326-9.13-17.132c-4.182-2.673-14.846-6.098-31.977-10.283   l-41.688-10.284c-11.419-2.662-21.222-5.752-29.408-9.271c-8.186-3.524-15.8-8.134-22.841-13.849   c-7.039-5.708-12.369-12.891-15.986-21.555c-3.616-8.658-5.424-18.796-5.424-30.406c0-13.896,3.189-26.121,9.563-36.688   c6.374-10.565,14.849-18.846,25.409-24.841c10.562-5.996,21.935-10.468,34.119-13.418c12.179-2.951,24.742-4.426,37.685-4.426   c18.276,0,35.589,2.19,51.961,6.567c16.368,4.377,29.882,10.801,40.538,19.271c10.657,8.473,15.985,17.942,15.985,28.409   c0,8.562-2.707,15.893-8.138,21.982c-5.414,6.088-12.601,9.134-21.55,9.134c-4.948,0-9.514-1.143-13.702-3.427   c-4.186-2.283-7.99-5.042-11.423-8.278c-3.426-3.234-7.047-6.423-10.852-9.563c-3.806-3.14-8.946-5.852-15.41-8.136   c-6.479-2.284-13.802-3.427-21.986-3.427c-27.406,0-41.112,7.323-41.112,21.982c0,3.234,0.715,6.09,2.141,8.564   c1.427,2.474,3,4.473,4.71,5.996c1.709,1.525,4.565,3.046,8.564,4.57c3.999,1.525,7.33,2.622,9.994,3.284   c2.663,0.666,6.854,1.665,12.562,2.996l29.694,6.851c9.325,2.096,17.648,4.286,24.981,6.567c7.331,2.288,15.181,5.521,23.555,9.71   c8.374,4.187,15.321,8.848,20.838,13.988c5.523,5.144,10.137,11.656,13.853,19.555c3.714,7.901,5.564,16.61,5.564,26.124   C334.896,280.84,331.761,293.357,325.472,304.49z"
      />
    </symbol>

    <symbol id="svg__mobile" viewBox="0 0 27.442 27.442">
      <path
        d="M19.494,0H7.948C6.843,0,5.951,0.896,5.951,1.999v23.446c0,1.102,0.892,1.997,1.997,1.997h11.546
		c1.103,0,1.997-0.895,1.997-1.997V1.999C21.491,0.896,20.597,0,19.494,0z M10.872,1.214h5.7c0.144,0,0.261,0.215,0.261,0.481
		s-0.117,0.482-0.261,0.482h-5.7c-0.145,0-0.26-0.216-0.26-0.482C10.612,1.429,10.727,1.214,10.872,1.214z M13.722,25.469
		c-0.703,0-1.275-0.572-1.275-1.276s0.572-1.274,1.275-1.274c0.701,0,1.273,0.57,1.273,1.274S14.423,25.469,13.722,25.469z
		 M19.995,21.1H7.448V3.373h12.547V21.1z"
      />
    </symbol>

    <symbol id="svg__phone" viewBox="0 0 348.077 348.077">
      <path
        d="M340.273,275.083l-53.755-53.761c-10.707-10.664-28.438-10.34-39.518,0.744l-27.082,27.076
				c-1.711-0.943-3.482-1.928-5.344-2.973c-17.102-9.476-40.509-22.464-65.14-47.113c-24.704-24.701-37.704-48.144-47.209-65.257
				c-1.003-1.813-1.964-3.561-2.913-5.221l18.176-18.149l8.936-8.947c11.097-11.1,11.403-28.826,0.721-39.521L73.39,8.194
				C62.708-2.486,44.969-2.162,33.872,8.938l-15.15,15.237l0.414,0.411c-5.08,6.482-9.325,13.958-12.484,22.02
				C3.74,54.28,1.927,61.603,1.098,68.941C-6,127.785,20.89,181.564,93.866,254.541c100.875,100.868,182.167,93.248,185.674,92.876
				c7.638-0.913,14.958-2.738,22.397-5.627c7.992-3.122,15.463-7.361,21.941-12.43l0.331,0.294l15.348-15.029
				C350.631,303.527,350.95,285.795,340.273,275.083z"
      />
    </symbol>

    <symbol id="svg__warehouse" viewBox="0 0 512 512">
      <path
        d="M507.785,146.242L260.318,1.175c-2.603-1.519-5.803-1.57-8.439-0.111L4.412,137.598C1.69,139.091,0,141.958,0,145.064
			v358.4c0,4.719,3.823,8.533,8.533,8.533H51.2c4.71,0,8.533-3.814,8.533-8.533V204.798h392.533v298.667
			c0,4.719,3.814,8.533,8.533,8.533h42.667c4.719,0,8.533-3.814,8.533-8.533V153.598C512,150.568,510.396,147.769,507.785,146.242z
			 M494.933,494.931h-25.6V196.264c0-4.71-3.814-8.533-8.533-8.533H51.2c-4.71,0-8.533,3.823-8.533,8.533v298.667h-25.6V150.099
			L255.872,18.344l239.061,140.143V494.931z"
      />
      <path
        d="M426.667,392.531h-102.4c-4.719,0-8.533,3.814-8.533,8.533v102.4c0,4.719,3.814,8.533,8.533,8.533h102.4
			c4.719,0,8.533-3.814,8.533-8.533v-102.4C435.2,396.345,431.386,392.531,426.667,392.531z M418.133,494.931H332.8v-85.333h85.333
			V494.931z"
      />
      <path
        d="M384,401.064v25.6h-17.067v-25.6h-17.067v34.133c0,4.719,3.814,8.533,8.533,8.533h34.133c4.719,0,8.533-3.814,8.533-8.533
			v-34.133H384z"
      />
      <path
        d="M324.267,392.531h-102.4c-4.71,0-8.533,3.814-8.533,8.533v102.4c0,4.719,3.823,8.533,8.533,8.533h102.4
			c4.719,0,8.533-3.814,8.533-8.533v-102.4C332.8,396.345,328.986,392.531,324.267,392.531z M315.733,494.931H230.4v-85.333h85.333
			V494.931z"
      />

      <path
        d="M281.6,401.064v25.6h-17.067v-25.6h-17.067v34.133c0,4.719,3.823,8.533,8.533,8.533h34.133
			c4.719,0,8.533-3.814,8.533-8.533v-34.133H281.6z"
      />
      <path
        d="M426.667,290.131h-102.4c-4.719,0-8.533,3.814-8.533,8.533v102.4c0,4.719,3.814,8.533,8.533,8.533h102.4
			c4.719,0,8.533-3.814,8.533-8.533v-102.4C435.2,293.945,431.386,290.131,426.667,290.131z M418.133,392.531H332.8v-85.333h85.333
			V392.531z"
      />
      <path
        d="M384,298.664v25.6h-17.067v-25.6h-17.067v34.133c0,4.719,3.814,8.533,8.533,8.533h34.133c4.719,0,8.533-3.814,8.533-8.533
			v-34.133H384z"
      />
      <rect x="51.2" y="255.998" width="409.6" height="17.067" />
      <rect x="51.2" y="221.864" width="409.6" height="17.067" />
      <path
        d="M298.667,119.464h-85.333c-4.71,0-8.533,3.823-8.533,8.533v34.133c0,4.71,3.823,8.533,8.533,8.533h85.333
			c4.719,0,8.533-3.823,8.533-8.533v-34.133C307.2,123.287,303.386,119.464,298.667,119.464z M290.133,153.598h-68.267v-17.067
			h68.267V153.598z"
      />
    </symbol>

    <symbol id="svg__support" viewBox="0 0 512 512">
      <path
        d="m255.107 65.06c5.562 0 10.071-4.509 10.071-10.071v-44.918c0-5.562-4.509-10.071-10.071-10.071s-10.071 4.509-10.071 10.071v44.918c.001 5.562 4.51 10.071 10.071 10.071z"
      />
      <path
        d="m501.28 345.985-17.791-17.741c-6.329-6.321-14.764-9.803-23.752-9.803-5.747 0-11.264 1.43-16.153 4.109l-33.526-33.486 1.633-1.631c13.601-13.628 13.596-35.773-.001-49.355-4.859-4.868-10.922-8.114-17.531-9.48.91-3.141 1.389-6.431 1.389-9.798 0-9.355-3.634-18.127-10.212-24.678-4.86-4.868-10.922-8.114-17.531-9.48.91-3.141 1.389-6.43 1.389-9.798 0-9.356-3.634-18.127-10.223-24.688-4.976-4.97-11.093-8.116-17.516-9.455 3.436-11.847.5-25.176-8.82-34.512-7.758-7.725-18.285-11.045-28.43-9.969l-66.435-12.575c-10.132-1.922-22.785-3.193-30.772 4.092-.504.46-1.018.989-1.524 1.578-12.384-4.514-26.828-1.826-36.745 8.08-6.579 6.571-10.203 15.339-10.203 24.689 0 3.368.477 6.657 1.386 9.799-6.602 1.365-12.657 4.607-17.5 9.459-6.592 6.565-10.227 15.323-10.234 24.662-.003 3.376.476 6.676 1.39 9.826-6.605 1.362-12.664 4.598-17.522 9.45-6.592 6.585-10.222 15.358-10.222 24.703 0 7.158 2.137 13.977 6.097 19.737-5 1.695-9.58 4.516-13.415 8.347-13.61 13.593-13.615 35.739.009 49.387l1.627 1.62-33.53 33.469c-12.461-5.867-27.814-3.669-38.097 6.601l-17.802 17.752c-6.332 6.324-9.818 14.76-9.819 23.753 0 8.994 3.487 17.431 9.819 23.756l22.217 22.19c3.935 3.931 10.312 3.927 14.242-.008 3.931-3.935 3.927-10.312-.008-14.242l-22.217-22.19c-2.522-2.519-3.911-5.895-3.911-9.505 0-3.609 1.389-6.984 3.905-9.497l17.803-17.753c4.448-4.443 11.256-5.105 16.426-2.014.364.547.785 1.067 1.267 1.55.863.865 1.848 1.528 2.894 2.013l102.093 101.943c.485 1.057 1.151 2.052 2.02 2.922.846.847 1.811 1.502 2.835 1.984 2.159 2.441 3.352 5.559 3.352 8.885 0 3.61-1.389 6.985-3.911 9.504l-17.785 17.764c-5.255 5.232-13.803 5.231-19.042.016l-22.217-22.219c-3.933-3.933-10.309-3.933-14.242 0s-3.933 10.309 0 14.242l22.233 22.235c6.544 6.517 15.138 9.774 23.736 9.774 8.6 0 17.204-3.262 23.756-9.785l17.796-17.775c6.332-6.325 9.819-14.761 9.819-23.756 0-6.419-1.785-12.549-5.104-17.835l37.736-37.69c.04-.041.08-.082.121-.123 4.321-4.467 16.354-3.631 27.991-2.823 8.268.575 17.486 1.214 26.492.176l41.324 41.275c-2.677 4.881-4.106 10.391-4.106 16.129 0 8.985 3.487 17.416 9.819 23.741l17.797 17.775c6.328 6.321 14.763 9.803 23.751 9.803 8.987 0 17.422-3.481 23.751-9.803l107.941-107.81c6.332-6.324 9.819-14.76 9.819-23.754-.001-8.993-3.488-17.429-9.826-23.759zm-267.26-242.55 43.687 8.269-26.149 26.139c-4.045-1.944-9.589-5.57-15.671-11.388-8.325-7.964-14.28-17.159-14.822-22.894-.001-.003-.001-.006-.001-.009 0-.001-.001-.002-.001-.003-.039-.412-.049-.741-.044-.992 1.317-.32 4.815-.675 13.001.878zm-51.058 8.211c5.102-5.097 13.028-5.685 18.793-1.781 3.267 13.698 14.952 26.113 20.209 31.143 3.896 3.728 16.397 14.905 29.015 17.977 1.707 2.447 2.636 5.364 2.636 8.442 0 3.965-1.525 7.672-4.304 10.448-2.771 2.776-6.484 4.304-10.456 4.304-3.973 0-7.686-1.528-10.47-4.317l-.001-.001-.005-.005-45.418-45.336c-2.769-2.765-4.294-6.472-4.294-10.436.001-3.965 1.526-7.672 4.295-10.438zm-26.316 43.947c2.771-2.775 6.48-4.304 10.446-4.304 3.971 0 7.692 1.532 10.481 4.318l36.572 36.499c5.759 5.768 5.759 15.154.02 20.902-2.786 2.775-6.512 4.303-10.491 4.303s-7.705-1.528-10.479-4.291l-.001-.001-27.745-27.739c-.043-.043-.09-.083-.134-.127l-8.68-8.676c-2.785-2.782-4.318-6.496-4.315-10.458.004-3.949 1.532-7.644 4.326-10.426zm-26.366 43.938c2.773-2.769 6.49-4.294 10.468-4.294 3.945 0 7.63 1.503 10.391 4.224l27.83 27.817c2.775 2.764 4.304 6.467 4.304 10.427 0 3.959-1.529 7.662-4.315 10.437-2.772 2.768-6.485 4.293-10.456 4.293-3.977 0-7.702-1.529-10.478-4.293l-10.089-10.077c-.002-.003-.005-.005-.007-.007l-17.647-17.626c-2.782-2.779-4.314-6.491-4.314-10.451 0-3.959 1.532-7.672 4.313-10.45zm-17.54 52.786c2.785-2.782 6.507-4.314 10.48-4.314 3.972 0 7.693 1.531 10.477 4.311l10.103 10.091c2.776 2.764 4.304 6.467 4.304 10.427s-1.529 7.662-4.325 10.448c-2.771 2.775-6.484 4.304-10.456 4.304-3.973 0-7.686-1.528-10.477-4.324l-1.265-1.26c-.017-.017-.03-.035-.046-.051-.019-.018-.039-.034-.058-.052l-8.727-8.693c-5.759-5.771-5.764-15.14-.01-20.887zm205.234 114.458c-3.931-3.936-10.308-3.939-14.242-.009l-8.96 8.949c-8.514 8.514-23.941 7.442-38.86 6.407-16.201-1.126-32.954-2.288-43.795 8.842l-37.095 37.05-92.763-92.627 32.828-32.769c5.426 3.326 11.687 5.109 18.238 5.109 9.359 0 18.135-3.628 24.69-10.195 6.599-6.572 10.234-15.343 10.234-24.699 0-.087-.006-.173-.006-.26.087.001.174.006.261.006 9.346 0 18.115-3.617 24.679-10.173 6.599-6.572 10.234-15.344 10.234-24.699 0-.087-.006-.173-.006-.26.088 0 .176.006.265.006 9.343 0 18.117-3.613 24.725-10.194 6.86-6.871 10.253-15.917 10.188-24.944.09.001.18.006.27.006 9.359-.001 18.134-3.628 24.699-10.205 6.579-6.571 10.203-15.339 10.203-24.689 0-6.539-1.778-12.79-5.093-18.205l28.773-28.761c2.144-2.135 4.788-3.475 7.559-4.028.3-.032.596-.08.889-.138 4.446-.613 9.115.759 12.515 4.145 5.759 5.769 5.759 15.155.021 20.903l-8.763 8.727c-.029.029-.06.055-.089.084l-10.093 10.076c-3.936 3.93-3.94 10.307-.009 14.242 3.932 3.936 10.308 3.939 14.242.009l8.798-8.786c.002-.002.004-.004.006-.006l1.33-1.325c5.775-5.722 15.131-5.71 20.9.051 2.776 2.764 4.305 6.467 4.305 10.427 0 3.959-1.529 7.662-4.327 10.448l-8.813 8.831c-.001.001-.002.002-.003.004l-10.092 10.051c-3.941 3.925-3.954 10.302-.029 14.242 3.925 3.941 10.301 3.953 14.242.029l10.138-10.097c2.771-2.776 6.484-4.304 10.456-4.304 3.973 0 7.687 1.528 10.478 4.324 2.776 2.765 4.304 6.468 4.304 10.428 0 3.959-1.528 7.662-4.32 10.442l-17.57 17.577c-3.932 3.934-3.931 10.31.002 14.242 1.967 1.966 4.543 2.948 7.12 2.948 2.578 0 5.156-.984 7.122-2.951l8.611-8.614c.049-.047.102-.088.151-.137 2.771-2.776 6.484-4.304 10.456-4.304 3.973 0 7.686 1.528 10.467 4.314 5.753 5.747 5.748 15.117 0 20.875l-8.755 8.745c-.003.003-.007.006-.01.009s-.006.007-.009.01l-13.896 13.879c-3.935 3.931-3.939 10.308-.009 14.243 1.967 1.969 4.547 2.954 7.126 2.954 2.575 0 5.151-.982 7.117-2.945l6.797-6.789 32.577 32.539-92.755 92.642-33.234-33.194c2.317-1.49 4.534-3.242 6.615-5.323l8.955-8.944c3.937-3.929 3.941-10.306.01-14.241zm169.078 12.472-107.941 107.81c-2.525 2.522-5.905 3.911-9.517 3.911s-6.992-1.389-9.518-3.912l-17.797-17.775c-2.522-2.518-3.911-5.888-3.911-9.489 0-3.6 1.389-6.97 3.911-9.489l107.941-107.81c2.526-2.523 5.905-3.912 9.518-3.912 3.612 0 6.992 1.389 9.524 3.918l17.791 17.741c2.522 2.519 3.911 5.893 3.911 9.503-.001 3.611-1.39 6.986-3.912 9.504z"
      />
      <path
        d="m121.378 56.57c1.966 1.962 4.54 2.942 7.114 2.942 2.58 0 5.161-.986 7.128-2.957 3.929-3.937 3.923-10.313-.014-14.242l-36.698-36.625c-3.936-3.929-10.313-3.924-14.242.014-3.929 3.937-3.923 10.313.014 14.242z"
      />
      <path
        d="m381.722 59.512c2.575 0 5.151-.982 7.117-2.945l36.67-36.626c3.935-3.93 3.939-10.307.008-14.242-3.93-3.935-10.306-3.939-14.242-.008l-36.67 36.626c-3.935 3.93-3.939 10.307-.008 14.242 1.967 1.969 4.546 2.953 7.125 2.953z"
      />
      <path
        d="m62.819 433.204c-3.899 3.966-3.845 10.343.122 14.242l.029.028c1.957 1.924 4.498 2.882 7.038 2.882 2.607 0 5.214-1.009 7.189-3.018 3.899-3.966 3.83-10.357-.136-14.256-3.965-3.899-10.341-3.844-14.242.122z"
      />
      <path
        d="m342.606 352.267c1.532 0 3.086-.349 4.545-1.084 4.966-2.505 6.961-8.561 4.457-13.527-2.505-4.966-8.562-6.962-13.527-4.457l-.056.028c-4.966 2.505-6.933 8.547-4.429 13.513 1.768 3.508 5.324 5.527 9.01 5.527z"
      />
    </symbol>

    <symbol id="svg__consultation" viewBox="0 0 496 496">
      <path
        d="M402.524,432l-18.52-55.568c-6.472-19.4-22.984-33.72-43.112-37.384l-53.464-9.728v-4.144
       c9.304-5.4,17.4-12.624,23.848-21.176h16.152c13.232,0,24-10.768,24-24v-96c0-57.344-46.656-104-104-104s-104,46.656-104,104v56
       c0,15.424,10.968,28.328,25.512,31.336c4.488,22.992,18.856,42.448,38.488,53.84v4.144l-53.472,9.728
       c-20.12,3.664-36.64,17.984-43.104,37.384l-3.2,9.608l-27.248-27.248c-3.12-3.12-3.12-8.2,0-11.32l31.6-31.592l-59.312-59.312
       L16.98,292.28c-10.576,10.576-16.4,24.64-16.4,39.6s5.824,29.016,16.4,39.592l108.12,108.12C135.676,490.168,149.74,496,164.7,496
       c14.96,0,29.016-5.832,39.344-16.168l38.968-35.704L230.86,432H402.524z M335.428,280c0,4.416-3.592,8-8,8H320.7
       c2.32-5.288,4.08-10.864,5.216-16.664c3.424-0.712,6.576-2.072,9.512-3.784V280z M327.428,253.776v-27.552
       c4.76,2.776,8,7.88,8,13.776S332.188,251,327.428,253.776z M167.428,253.776c-4.76-2.776-8-7.88-8-13.776s3.24-11,8-13.776
       V253.776z M167.428,200v9.136c-2.848,0.744-5.52,1.864-8,3.312V184c0-48.52,39.48-88,88-88s88,39.48,88,88v28.448
       c-2.48-1.448-5.152-2.576-8-3.312V200h-8c-23.656,0-45.896-9.216-62.632-25.944l-9.368-9.368l-9.368,9.368
       C221.324,190.784,199.084,200,175.428,200H167.428z M183.428,256v-40.304c24.024-1.808,46.424-11.72,64-28.432
       c17.576,16.712,39.976,26.632,64,28.432V256c0,11.664-3.184,22.576-8.656,32h-55.344v16h42.192c-11.28,9.928-26.024,16-42.192,16
       C212.14,320,183.428,291.288,183.428,256z M271.428,332.312v0.376l-24,24l-24-24v-0.376c7.584,2.384,15.64,3.688,24,3.688
       S263.844,334.696,271.428,332.312z M126.02,381.488c4.616-13.856,16.416-24.088,30.792-26.712l55.92-10.16l34.696,34.696
       l34.688-34.688l55.912,10.16c14.376,2.624,26.176,12.848,30.792,26.712L380.332,416H214.86l-31.16-31.16l-34.624,31.32
       c-3.016,3.032-8.288,3.032-11.312,0l-17.472-17.472L126.02,381.488z M52.684,279.192l36.688,36.688l-8.688,8.688L43.996,287.88
       L52.684,279.192z M192.964,468.296c-7.552,7.536-17.6,11.704-28.28,11.704c-10.68,0-20.728-4.168-28.288-11.72L28.276,360.168
       c-7.552-7.552-11.712-17.6-11.712-28.28c0-10.688,4.16-20.736,11.712-28.288l4.4-4.4l36.688,36.688l-0.288,0.288
       c-9.352,9.36-9.352,24.584,0,33.944l57.368,57.368c4.536,4.528,10.56,7.032,16.976,7.032s12.44-2.496,16.68-6.752l0.6-0.536
       l36.856,36.856L192.964,468.296z M209.364,453.256l-36.776-36.776l10.568-9.552l36.712,36.712L209.364,453.256z"
      />
      <path
        d="M471.428,0h-112c-13.232,0-24,10.768-24,24v64c0,13.232,10.768,24,24,24h21.368l-8.272,48.248l77.2-48.248h21.704
       c13.232,0,24-10.768,24-24V24C495.428,10.768,484.66,0,471.428,0z M479.428,88c0,4.408-3.592,8-8,8h-26.296l-50.808,31.752
       L399.772,96h-40.344c-4.408,0-8-3.592-8-8V24c0-4.408,3.592-8,8-8h112c4.408,0,8,3.592,8,8V88z"
      />
      <rect x="367.428" y="32" width="96" height="16" />
      <rect x="367.428" y="64" width="64" height="16" />
      <rect x="447.428" y="64" width="16" height="16" />
      <path
        d="M247.428,24C142.9,24,52.86,96.304,29.452,197.16l-15.16-25.272l-13.72,8.232l28.12,46.856l46.856-28.12l-8.232-13.72
       l-21.68,13.008C68.308,105.88,151.276,40,247.428,40c21.016,0,41.752,3.12,61.632,9.28L313.796,34
       C292.38,27.36,270.052,24,247.428,24z"
      />
      <path
        d="M491.54,177.136l-46.856-28.12l-28.112,46.864l13.72,8.232l14-23.336c7.368,21.56,11.136,44.112,11.136,67.224
       c0,47.576-16.48,94.088-46.392,130.96l12.424,10.08c32.224-39.712,49.968-89.808,49.968-141.04
       c0-24.472-3.944-48.368-11.632-71.248l23.512,14.104L491.54,177.136z"
      />
    </symbol>

    <symbol id="svg__warranty" viewBox="0 0 496 496.704">
      <path
        d="m488.351562 272c-30.871093 0-56-25.128906-56-56v-8h-80v-208h-267.3125l-84.6875 84.6875v379.3125h322.777344c14.75 12.726562 31.527344 23.40625 50.070313 31.351562l3.152343 1.351563 3.152344-1.351563c70.984375-30.414062 116.847656-99.976562 116.847656-177.199218v-46.152344zm-460.6875-192 52.6875-52.6875v52.6875zm20.6875 16h48v-48h208v80h-256zm-32 0h16v48h288v-112h-224v-16h240v192h-16v8c0 30.871094-25.128906 56-56 56h-8v46.152344c0 49.09375 18.59375 95.039062 50.328126 129.847656h-290.328126zm464 222.152344c0 69.671875-40.703124 132.527344-104 161.113281-63.296874-28.578125-104-91.441406-104-161.113281v-30.59375c33.320313-3.695313 59.855469-30.230469 63.550782-63.550782h80.890625c3.695312 33.320313 30.230469 59.855469 63.550781 63.550782v30.59375zm0 0"
      />
      <path
        d="m410.792969 323.9375 20.910156-48.792969-14.703125-6.296875-20.175781 47.082032c-6.351563-2.503907-13.238281-3.929688-20.472657-3.929688-30.871093 0-56 25.128906-56 56s25.128907 56 56 56c30.871094 0 56-25.128906 56-56 0-17.886719-8.464843-33.800781-21.558593-44.0625zm-34.441407 84.0625c-22.054687 0-40-17.945312-40-40s17.945313-40 40-40c4.992188 0 9.726563 1.03125 14.136719 2.710938l-17.703125 41.296874-16-10.664062-8.875 13.3125 32 21.335938 24.265625-56.625c7.488281 7.273437 12.175781 17.402343 12.175781 28.632812 0 22.054688-17.945312 40-40 40zm0 0"
      />
      <path d="m32.351562 432h208v-144h-208zm16-128h176v112h-176zm0 0" />
      <path d="m64.351562 160h176v16h-176zm0 0" />
      <path d="m32.351562 160h16v16h-16zm0 0" />
      <path d="m32.351562 192h208v16h-208zm0 0" />
      <path d="m32.351562 224h208v16h-208zm0 0" />
      <path d="m32.351562 256h208v16h-208zm0 0" />
    </symbol>
  </defs>
</svg>
