<svg
  xmlns="http://www.w3.org/2000/svg"
  xmlns:xlink="http://www.w3.org/1999/xlink"
>
  <symbol id="svg__facebook" viewBox="0 0 96.124 96.123">
    <path
      d="M72.089,0.02L59.624,0C45.62,0,36.57,9.285,36.57,23.656v10.907H24.037c-1.083,0-1.96,0.878-1.96,1.961v15.803
          c0,1.083,0.878,1.96,1.96,1.96h12.533v39.876c0,1.083,0.877,1.96,1.96,1.96h16.352c1.083,0,1.96-0.878,1.96-1.96V54.287h14.654
          c1.083,0,1.96-0.877,1.96-1.96l0.006-15.803c0-0.52-0.207-1.018-0.574-1.386c-0.367-0.368-0.867-0.575-1.387-0.575H56.842v-9.246
          c0-4.444,1.059-6.7,6.848-6.7l8.397-0.003c1.082,0,1.959-0.878,1.959-1.96V1.98C74.046,0.899,73.17,0.022,72.089,0.02z"
    />
  </symbol>
  <symbol id="svg__twitter" viewBox="0 0 430.117 430.117">
    <path
      d="M381.384,198.639c24.157-1.993,40.543-12.975,46.849-27.876
              c-8.714,5.353-35.764,11.189-50.703,5.631c-0.732-3.51-1.55-6.844-2.353-9.854c-11.383-41.798-50.357-75.472-91.194-71.404
              c3.304-1.334,6.655-2.576,9.996-3.691c4.495-1.61,30.868-5.901,26.715-15.21c-3.5-8.188-35.722,6.188-41.789,8.067
              c8.009-3.012,21.254-8.193,22.673-17.396c-12.27,1.683-24.315,7.484-33.622,15.919c3.36-3.617,5.909-8.025,6.45-12.769
              C241.68,90.963,222.563,133.113,207.092,174c-12.148-11.773-22.915-21.044-32.574-26.192
              c-27.097-14.531-59.496-29.692-110.355-48.572c-1.561,16.827,8.322,39.201,36.8,54.08c-6.17-0.826-17.453,1.017-26.477,3.178
              c3.675,19.277,15.677,35.159,48.169,42.839c-14.849,0.98-22.523,4.359-29.478,11.642c6.763,13.407,23.266,29.186,52.953,25.947
              c-33.006,14.226-13.458,40.571,13.399,36.642C113.713,320.887,41.479,317.409,0,277.828
              c108.299,147.572,343.716,87.274,378.799-54.866c26.285,0.224,41.737-9.105,51.318-19.39
              C414.973,206.142,393.023,203.486,381.384,198.639z"
    />
  </symbol>
  <symbol id="svg__linkedin" viewBox="0 0 430.117 430.118">
    <path
      d="M398.355,0H31.782C14.229,0,0.002,13.793,0.002,30.817v368.471
              c0,17.025,14.232,30.83,31.78,30.83h366.573c17.549,0,31.76-13.814,31.76-30.83V30.817C430.115,13.798,415.904,0,398.355,0z
               M130.4,360.038H65.413V165.845H130.4V360.038z M97.913,139.315h-0.437c-21.793,0-35.92-14.904-35.92-33.563
              c0-19.035,14.542-33.535,36.767-33.535c22.227,0,35.899,14.496,36.331,33.535C134.654,124.415,120.555,139.315,97.913,139.315z
               M364.659,360.038h-64.966V256.138c0-26.107-9.413-43.921-32.907-43.921c-17.973,0-28.642,12.018-33.327,23.621
              c-1.736,4.144-2.166,9.94-2.166,15.728v108.468h-64.954c0,0,0.85-175.979,0-194.192h64.964v27.531
              c8.624-13.229,24.035-32.1,58.534-32.1c42.76,0,74.822,27.739,74.822,87.414V360.038z M230.883,193.99
              c0.111-0.182,0.266-0.401,0.42-0.614v0.614H230.883z"
    />
  </symbol>
  <symbol id="svg__heart" viewBox="0 0 50 50">
    <path
      d="M24.85,10.126c2.018-4.783,6.628-8.125,11.99-8.125c7.223,0,12.425,6.179,13.079,13.543  c0,0,0.353,1.828-0.424,5.119c-1.058,4.482-3.545,8.464-6.898,11.503L24.85,48L7.402,32.165c-3.353-3.038-5.84-7.021-6.898-11.503  c-0.777-3.291-0.424-5.119-0.424-5.119C0.734,8.179,5.936,2,13.159,2C18.522,2,22.832,5.343,24.85,10.126z"
    />
  </symbol>
  <symbol id="svg__letter" viewBox="0 0 550.795 550.795">
    <g>
      <path
        d="M501.613,491.782c12.381,0,23.109-4.088,32.229-12.16L377.793,323.567c-3.744,2.681-7.373,5.288-10.801,7.767    c-11.678,8.604-21.156,15.318-28.434,20.129c-7.277,4.822-16.959,9.737-29.045,14.755c-12.094,5.024-23.361,7.528-33.813,7.528    h-0.306h-0.306c-10.453,0-21.72-2.503-33.813-7.528c-12.093-5.018-21.775-9.933-29.045-14.755    c-7.277-4.811-16.75-11.524-28.434-20.129c-3.256-2.387-6.867-5.006-10.771-7.809L16.946,479.622    c9.119,8.072,19.854,12.16,32.234,12.16H501.613z"
      />
      <path
        d="M31.047,225.299C19.37,217.514,9.015,208.598,0,198.555V435.98l137.541-137.541    C110.025,279.229,74.572,254.877,31.047,225.299z"
      />
      <path
        d="M520.059,225.299c-41.865,28.336-77.447,52.73-106.75,73.195l137.486,137.492V198.555    C541.98,208.396,531.736,217.306,520.059,225.299z"
      />
      <path
        d="M501.613,59.013H49.181c-15.784,0-27.919,5.33-36.42,15.979C4.253,85.646,0.006,98.97,0.006,114.949    c0,12.907,5.636,26.892,16.903,41.959c11.267,15.061,23.256,26.891,35.961,35.496c6.965,4.921,27.969,19.523,63.012,43.801    c18.917,13.109,35.368,24.535,49.505,34.395c12.05,8.396,22.442,15.667,31.022,21.701c0.985,0.691,2.534,1.799,4.59,3.269    c2.215,1.591,5.018,3.61,8.476,6.107c6.659,4.816,12.191,8.709,16.597,11.683c4.4,2.975,9.731,6.298,15.985,9.988    c6.249,3.685,12.143,6.456,17.675,8.299c5.533,1.842,10.655,2.766,15.367,2.766h0.306h0.306c4.711,0,9.834-0.924,15.368-2.766    c5.531-1.843,11.42-4.608,17.674-8.299c6.248-3.69,11.572-7.02,15.986-9.988c4.406-2.974,9.938-6.866,16.598-11.683    c3.451-2.497,6.254-4.517,8.469-6.102c2.057-1.476,3.605-2.577,4.596-3.274c6.684-4.651,17.1-11.892,31.104-21.616    c25.482-17.705,63.01-43.764,112.742-78.281c14.957-10.447,27.453-23.054,37.496-37.803c10.025-14.749,15.051-30.22,15.051-46.408    c0-13.525-4.873-25.098-14.598-34.737C526.461,63.829,514.932,59.013,501.613,59.013z"
      />
    </g>
  </symbol>
  <symbol id="svg__headsets_with_microphone" viewBox="0 0 575.969 575.969">
    <path
      d="M563.472,363.566c-7.456-11.369-17.657-20.234-29.382-26.146c4.009-53.108-12.074-97.496-36.568-99.644l-0.896-0.078    c-1.153-44.898-15.597-89.487-42.517-127.657C410.748,48.562,340.953,11.86,267.407,11.86    c-73.548,0-143.343,36.702-186.707,98.183c-26.937,38.201-41.379,82.816-42.524,127.745l-0.887,0.075    C12.384,240.05-3.938,285.838,0.826,340.122c4.774,54.304,28.837,96.541,53.729,94.356h0.01l81.259-7.132    c6.854-0.604,13.183-3.903,17.601-9.172c4.429-5.28,6.567-12.086,5.965-18.939l-12.724-144.934    c-1.259-14.27-13.839-24.829-28.111-23.568l-21.495,1.891c1.938-31.081,12.427-61.645,31.567-88.783    c32.875-46.61,83.454-73.336,138.779-73.336c55.322,0,105.904,26.728,138.779,73.336c19.128,27.11,29.599,57.645,31.556,88.687    l-21.485-1.881c-14.271-1.261-26.851,9.296-28.111,23.568L375.421,399.15c-0.6,6.853,1.538,13.66,5.967,18.938    c4.419,5.271,10.749,8.572,17.603,9.173l81.259,7.132h0.009c18.312,1.604,36.103-20.925,46.173-54.503    c1.536,1.61,3.094,3.205,4.341,5.116c6.875,10.47,8,23.595,3.009,35.088l-25.804,59.359c-7.837,18.031-25.6,29.676-45.261,29.676    h-34.728c-2.835-9.125-11.026-15.884-21.085-15.884h-64.354c-12.37,0-22.399,10.031-22.399,22.401v26.06    c0,12.37,10.029,22.402,22.399,22.402h64.354c10.059,0,18.25-6.758,21.085-15.883h34.728c35.238,0,67.083-20.886,81.114-53.197    l25.81-59.362C579.89,412.047,577.589,385.09,563.472,363.566z"
    />
  </symbol>
  <symbol id="svg__location_pin" viewBox="0 0 413.099 413.099">
    <path
      d="M206.549,0L206.549,0c-82.6,0-149.3,66.7-149.3,149.3c0,28.8,9.2,56.3,22,78.899l97.3,168.399c6.1,11,18.4,16.5,30,16.5    c11.601,0,23.3-5.5,30-16.5l97.3-168.299c12.9-22.601,22-49.601,22-78.901C355.849,66.8,289.149,0,206.549,0z M206.549,193.4    c-30,0-54.5-24.5-54.5-54.5s24.5-54.5,54.5-54.5s54.5,24.5,54.5,54.5C261.049,169,236.549,193.4,206.549,193.4z"
    />
  </symbol>
  <symbol id="svg__magnifying_search_lenses_tool" viewBox="0 0 28.931 28.932">
    <path
      d="M28.344,25.518l-6.114-6.115c1.486-2.067,2.303-4.537,2.303-7.137c0-3.275-1.275-6.355-3.594-8.672   C18.625,1.278,15.543,0,12.266,0C8.99,0,5.909,1.275,3.593,3.594C1.277,5.909,0.001,8.99,0.001,12.266   c0,3.276,1.275,6.356,3.592,8.674c2.316,2.316,5.396,3.594,8.673,3.594c2.599,0,5.067-0.813,7.136-2.303l6.114,6.115   c0.392,0.391,0.902,0.586,1.414,0.586c0.513,0,1.024-0.195,1.414-0.586C29.125,27.564,29.125,26.299,28.344,25.518z M6.422,18.111   c-1.562-1.562-2.421-3.639-2.421-5.846S4.86,7.983,6.422,6.421c1.561-1.562,3.636-2.422,5.844-2.422s4.284,0.86,5.845,2.422   c1.562,1.562,2.422,3.638,2.422,5.845s-0.859,4.283-2.422,5.846c-1.562,1.562-3.636,2.42-5.845,2.42S7.981,19.672,6.422,18.111z"
    />
  </symbol>
  <symbol id="svg__skype_logo" viewBox="0 0 438.536 438.536">
    <path
      d="M415.7,262.093c3.039-14.657,4.564-28.935,4.564-42.826c0-27.218-5.276-53.247-15.844-78.087   c-10.562-24.838-24.838-46.249-42.825-64.237C343.608,58.955,322.2,44.68,297.361,34.114   c-24.845-10.559-50.866-15.843-78.088-15.843c-13.894,0-28.171,1.524-42.827,4.57C156.651,7.614,134.381,0,109.637,0   C79.375,0,53.538,10.705,32.124,32.115c-21.416,21.416-32.12,47.253-32.12,77.516c0,24.744,7.614,47.014,22.839,66.809   c-3.044,14.655-4.568,28.933-4.568,42.827c0,27.215,5.28,53.243,15.843,78.085c10.562,24.838,24.838,46.25,42.827,64.241   c17.987,17.986,39.401,32.257,64.239,42.824c24.84,10.564,50.869,15.845,78.087,15.845c13.893,0,28.17-1.526,42.834-4.572   c19.79,15.229,42.058,22.847,66.804,22.847c30.259,0,56.103-10.711,77.505-32.12c21.416-21.416,32.12-47.253,32.12-77.519   C438.529,304.158,430.918,281.891,415.7,262.093z M325.472,304.49c-6.276,11.136-14.702,20.033-25.263,26.696   c-10.567,6.663-22.224,11.748-34.975,15.273c-12.751,3.518-26.073,5.283-39.971,5.283c-32.163,0-59.855-6.235-83.078-18.705   c-23.223-12.471-34.833-27.453-34.833-44.968c0-8.562,2.428-15.693,7.282-21.408c4.853-5.712,12.038-8.562,21.555-8.562   c5.52,0,10.657,1.522,15.415,4.564c4.758,3.046,9.135,6.715,13.134,10.999c3.999,4.285,8.326,8.562,12.99,12.847   c4.661,4.285,10.847,7.946,18.555,10.992c7.71,3.046,16.418,4.572,26.128,4.572c12.371,0,22.36-2.423,29.981-7.275   c7.61-4.859,11.416-10.999,11.416-18.418c0-7.618-3.042-13.326-9.13-17.132c-4.182-2.673-14.846-6.098-31.977-10.283   l-41.688-10.284c-11.419-2.662-21.222-5.752-29.408-9.271c-8.186-3.524-15.8-8.134-22.841-13.849   c-7.039-5.708-12.369-12.891-15.986-21.555c-3.616-8.658-5.424-18.796-5.424-30.406c0-13.896,3.189-26.121,9.563-36.688   c6.374-10.565,14.849-18.846,25.409-24.841c10.562-5.996,21.935-10.468,34.119-13.418c12.179-2.951,24.742-4.426,37.685-4.426   c18.276,0,35.589,2.19,51.961,6.567c16.368,4.377,29.882,10.801,40.538,19.271c10.657,8.473,15.985,17.942,15.985,28.409   c0,8.562-2.707,15.893-8.138,21.982c-5.414,6.088-12.601,9.134-21.55,9.134c-4.948,0-9.514-1.143-13.702-3.427   c-4.186-2.283-7.99-5.042-11.423-8.278c-3.426-3.234-7.047-6.423-10.852-9.563c-3.806-3.14-8.946-5.852-15.41-8.136   c-6.479-2.284-13.802-3.427-21.986-3.427c-27.406,0-41.112,7.323-41.112,21.982c0,3.234,0.715,6.09,2.141,8.564   c1.427,2.474,3,4.473,4.71,5.996c1.709,1.525,4.565,3.046,8.564,4.57c3.999,1.525,7.33,2.622,9.994,3.284   c2.663,0.666,6.854,1.665,12.562,2.996l29.694,6.851c9.325,2.096,17.648,4.286,24.981,6.567c7.331,2.288,15.181,5.521,23.555,9.71   c8.374,4.187,15.321,8.848,20.838,13.988c5.523,5.144,10.137,11.656,13.853,19.555c3.714,7.901,5.564,16.61,5.564,26.124   C334.896,280.84,331.761,293.357,325.472,304.49z"
    />
  </symbol>
</svg>
